<svg xmlns="http://www.w3.org/2000/svg" xmlns:xlink="http://www.w3.org/1999/xlink" width="65.234" height="37.497" viewBox="0 0 65.234 37.497">
  <defs>
    <clipPath id="clip-path">
      <rect id="Rectangle_62" data-name="Rectangle 62" width="65.234" height="37.497" fill="none"/>
    </clipPath>
  </defs>
  <g id="Fifa_Logo" data-name="Fifa Logo" clip-path="url(#clip-path)">
    <path id="Path_96" data-name="Path 96" d="M6.348,13.03h4.57l1.625-4.457h-6.2V4.444h7.7L15.662,0H0V20.4H6.348ZM31.3,23.345a7.076,7.076,0,1,0,7.066,7.066A6.9,6.9,0,0,0,31.3,23.345m0,10.123c-1.771,0-2.706-1.227-2.706-3.056,0-1.869.934-3.076,2.706-3.076,1.733,0,2.687,1.207,2.687,3.076,0,1.829-.953,3.056-2.687,3.056M11.817,27h3.621V37.36h4.321V27h3.66V23.578h-11.6ZM17.605,20.4h6.349V0H17.6ZM4.672,27.414a.617.617,0,0,1,.622-.7c.467,0,.915.253.954,1.09H10.9c-.118-2.861-2.259-4.458-5.587-4.458-2.94,0-5.276,1.441-5.276,4.2-.078,4.711,6.424,4.029,6.443,5.9,0,.487-.409.682-.837.682s-.973-.175-1.051-1.188H0c.194,3.1,2.667,4.555,5.82,4.555,3.329,0,5.256-1.868,5.256-4.4,0-4.244-6.4-3.951-6.4-5.684M48.134,0,40.7,20.4h6.251l.795-2.74h7.174l.829,2.74h6.412L54.734,0Zm.747,13.737,2.452-8.5,2.538,8.5ZM63.325,3a.871.871,0,0,0,.238-.671.9.9,0,0,0-.327-.784,1.631,1.631,0,0,0-.954-.234H60.992v3.47h.645V3.292h.39l.9,1.493h.662l-.934-1.519A1.115,1.115,0,0,0,63.325,3M62.2,2.8h-.568V1.808h.577a1.813,1.813,0,0,1,.25.017.7.7,0,0,1,.225.068.4.4,0,0,1,.229.39.559.559,0,0,1-.059.28.376.376,0,0,1-.157.153.659.659,0,0,1-.225.069A2.227,2.227,0,0,1,62.2,2.8m2.787-.929A3.1,3.1,0,0,0,63.363.242a3.057,3.057,0,0,0-2.384,0A3.1,3.1,0,0,0,59.35,1.871a2.954,2.954,0,0,0-.242,1.193,2.948,2.948,0,0,0,.242,1.192,3.126,3.126,0,0,0,.657.972,3.088,3.088,0,0,0,.971.657,3.057,3.057,0,0,0,2.384,0,3.092,3.092,0,0,0,1.629-1.629,2.948,2.948,0,0,0,.242-1.192,2.954,2.954,0,0,0-.242-1.193M64.3,4.051a2.454,2.454,0,0,1-.5.786,2.207,2.207,0,0,1-.733.513,2.323,2.323,0,0,1-1.808,0,2.208,2.208,0,0,1-.734-.513,2.453,2.453,0,0,1-.5-.786,2.613,2.613,0,0,1-.183-.988,2.617,2.617,0,0,1,.183-.988,2.443,2.443,0,0,1,.5-.785,2.218,2.218,0,0,1,.734-.514,2.334,2.334,0,0,1,1.808,0,2.217,2.217,0,0,1,.733.514,2.445,2.445,0,0,1,.5.785,2.626,2.626,0,0,1,.183.988,2.622,2.622,0,0,1-.183.988M51.59,28.095c0-2.53-1.771-4.516-5.236-4.516H39.931V37.36h4.321V32.416h.02L46.86,37.36H51.61l-3-5.275a4.058,4.058,0,0,0,2.978-3.991m-5.626,1.44H44.252V27.2h1.713a1.107,1.107,0,0,1,1.246,1.167c0,.818-.428,1.168-1.246,1.168m7.01,7.826h9.188V33.915H57.3V31.968h4.283V28.718H57.3V27.024h4.866V23.578H52.974ZM34.671,8.573V4.444h7.695L43.985,0H28.322V20.4h6.348V13.03h4.57l1.625-4.457Z" transform="translate(0 0)" fill="#fff"/>
  </g>
</svg>
