<svg width="29" height="26" viewBox="0 0 29 26" fill="none" xmlns="http://www.w3.org/2000/svg">
<g id="Icon">
<path id="Vector" d="M9.67808 25C10.2772 25 10.7628 24.5116 10.7628 23.9091C10.7628 23.3066 10.2772 22.8182 9.67808 22.8182C9.07899 22.8182 8.59332 23.3066 8.59332 23.9091C8.59332 24.5116 9.07899 25 9.67808 25Z" stroke="white" stroke-width="2" stroke-linecap="round" stroke-linejoin="round"/>
<path id="Vector_2" d="M24.8647 25C25.4638 25 25.9494 24.5116 25.9494 23.9091C25.9494 23.3066 25.4638 22.8182 24.8647 22.8182C24.2656 22.8182 23.7799 23.3066 23.7799 23.9091C23.7799 24.5116 24.2656 25 24.8647 25Z" stroke="white" stroke-width="2" stroke-linecap="round" stroke-linejoin="round"/>
<path id="Vector_3" d="M1 1H5.33903L8.5933 19.5455H25.9494" stroke="white" stroke-width="2" stroke-linecap="round" stroke-linejoin="round"/>
<path id="Vector_4" d="M8.59328 15.1818H25.5047C25.6301 15.1819 25.7517 15.1383 25.8487 15.0583C25.9458 14.9784 26.0122 14.8671 26.0369 14.7434L27.9894 4.92524C28.0052 4.84607 28.0033 4.76437 27.9838 4.68603C27.9644 4.6077 27.9279 4.53469 27.8769 4.47226C27.826 4.40984 27.762 4.35956 27.6894 4.32505C27.6168 4.29055 27.5375 4.27268 27.4572 4.27274H6.42377" stroke="white" stroke-width="2" stroke-linecap="round" stroke-linejoin="round"/>
</g>
</svg>
