<svg width="17" height="17" viewBox="0 0 17 17" fill="none" xmlns="http://www.w3.org/2000/svg">
<g id="Icon">
<path id="Vector" d="M6.82951 1C5.67655 1 4.54947 1.3419 3.59081 1.98245C2.63215 2.623 1.88497 3.53345 1.44375 4.59865C1.00253 5.66386 0.887082 6.83598 1.11202 7.96679C1.33695 9.09761 1.89216 10.1363 2.70743 10.9516C3.5227 11.7669 4.56142 12.3221 5.69223 12.547C6.82305 12.7719 7.99517 12.6565 9.06037 12.2153C10.1256 11.7741 11.036 11.0269 11.6766 10.0682C12.3171 9.10956 12.659 7.98248 12.659 6.82951C12.6589 5.28346 12.0447 3.80076 10.9515 2.70753C9.85827 1.61431 8.37557 1.0001 6.82951 1Z" stroke="black" stroke-width="2" stroke-miterlimit="10"/>
<path id="Vector_2" d="M11.1787 11.1787L15.25 15.25" stroke="black" stroke-width="2" stroke-miterlimit="10" stroke-linecap="round"/>
</g>
</svg>
